<svg width="171" height="55" viewBox="0 0 171 55" fill="none" xmlns="http://www.w3.org/2000/svg">
<rect width="170.851" height="55" fill="white"/>
<path fill-rule="evenodd" clip-rule="evenodd" d="M42.12 17.7654L47.4654 21.5981C48.1378 22.0801 49.0136 23.2387 47.4113 24.165L42.7384 27.6406C41.6968 28.4055 39.4961 29.6241 39.4961 27.0985V18.2404C39.4961 16.1355 41.2266 17.1255 42.12 17.7654Z" fill="#A4CD39"/>
<path fill-rule="evenodd" clip-rule="evenodd" d="M55.4558 18.4352L50.1104 14.6025C49.0523 13.8447 48.441 12.0062 51.6186 12.0557L56.2446 12.1264C57.908 12.1264 58.082 12.1865 58.082 14.0463V17.351C58.082 19.4594 56.9534 19.5101 55.4546 18.4352" fill="#33C5F3"/>
<path fill-rule="evenodd" clip-rule="evenodd" d="M29.2248 17.7654L23.8795 21.5981C23.207 22.0801 22.3312 23.2387 23.9335 24.165L28.6065 27.6406C29.648 28.4055 31.8523 29.6241 31.8523 27.0985V18.2404C31.8523 16.1355 30.1183 17.1255 29.2248 17.7654Z" fill="#33C5F3"/>
<path fill-rule="evenodd" clip-rule="evenodd" d="M17.1747 27.0037L22.5236 30.8364C23.196 31.3184 24.0695 32.477 22.466 33.4033L17.7966 36.8753C16.7515 37.6438 14.5508 38.8624 14.5508 36.3367V27.4787C14.5508 25.3738 16.2848 26.3637 17.1747 27.0037Z" fill="#A4CD39"/>
<path fill-rule="evenodd" clip-rule="evenodd" d="M17.1747 18.3243L22.5236 14.4916C23.196 14.0096 24.0695 12.9418 22.466 12.0155H16.3882C15.3102 12.0155 14.5508 11.6984 14.5508 13.9353V17.8458C14.5508 19.9507 16.2848 18.9643 17.1747 18.3243Z" fill="#EC1B68"/>
<path fill-rule="evenodd" clip-rule="evenodd" d="M42.6207 36.4146L48.695 40.7659C49.4579 41.3151 50.4525 42.5243 48.6315 43.5779H41.7273C40.5047 43.5779 39.6406 43.935 39.6406 41.3952V36.9556C39.6406 34.5607 41.6097 35.6863 42.6207 36.4134" fill="#EC1B68"/>
<path fill-rule="evenodd" clip-rule="evenodd" d="M55.4241 27.0037L50.0787 30.8364C49.4062 31.3184 48.5304 32.477 50.1327 33.4033L54.8057 36.8753C55.8473 37.6438 58.048 38.8624 58.048 36.3367V27.4787C58.048 25.3738 56.3175 26.3637 55.4241 27.0037Z" fill="#F16822"/>
<path fill-rule="evenodd" clip-rule="evenodd" d="M28.7562 36.4146L22.6855 40.7659C21.9225 41.3151 20.928 42.5243 22.749 43.5779H29.6497C30.8758 43.5779 31.7387 43.935 31.7387 41.3952V36.9556C31.7387 34.5607 29.7696 35.6863 28.755 36.4134" fill="#B86CAB"/>
<path d="M76.927 16.6948C76.7236 16.32 76.4332 16.0336 76.0547 15.8356C75.6761 15.6376 75.2294 15.5386 74.7169 15.5386C73.8305 15.5386 73.1204 15.8309 72.5867 16.4131C72.053 16.9965 71.7861 17.7755 71.7861 18.749C71.7861 19.7873 72.0659 20.5982 72.6267 21.1816C73.1874 21.765 73.9586 22.0561 74.9414 22.0561C75.6138 22.0561 76.1828 21.8852 76.6472 21.5422C77.1115 21.1993 77.4501 20.7078 77.6641 20.0655H75.7573L74.1878 18.0419H80.1457V20.5947C79.9423 21.2794 79.5979 21.917 79.1124 22.5051C78.6269 23.0944 78.0097 23.5705 77.2632 23.9335C76.5155 24.2977 75.6726 24.4792 74.7333 24.4792C73.6224 24.4792 72.6326 24.2364 71.7626 23.7485C70.8927 23.2617 70.2144 22.5841 69.7289 21.7178C69.2433 20.8504 69 19.8604 69 18.7479C69 17.6353 69.2433 16.6418 69.7289 15.7696C70.2144 14.8975 70.8903 14.2175 71.7544 13.7307C72.6196 13.244 73.6071 13 74.7169 13C76.0617 13 77.1962 13.3265 78.1202 13.9794C79.043 14.6323 79.6543 15.5363 79.9541 16.6924H76.927V16.6948Z" fill="#222020"/>
<path d="M84.1719 23.9706C83.4725 23.5958 82.9223 23.0607 82.5226 22.3654C82.1217 21.67 81.9219 20.8557 81.9219 19.9246C81.9219 18.9935 82.1241 18.1933 82.5308 17.492C82.9364 16.7908 83.4913 16.2534 84.1966 15.8786C84.9008 15.5038 85.6908 15.3164 86.5666 15.3164C87.4424 15.3164 88.2324 15.5038 88.9366 15.8786C89.6408 16.2534 90.1956 16.7908 90.6024 17.492C91.008 18.1933 91.2113 19.0041 91.2113 19.9246C91.2113 20.845 91.0056 21.6559 90.5953 22.3571C90.1839 23.0584 89.6231 23.5958 88.9142 23.9706C88.2042 24.3454 87.4118 24.5328 86.536 24.5328C85.6602 24.5328 84.8726 24.3454 84.1743 23.9706H84.1719ZM87.8715 21.5781C88.2395 21.1927 88.424 20.6412 88.424 19.9246C88.424 19.208 88.2453 18.6565 87.888 18.2711C87.5306 17.8857 87.0897 17.6936 86.5666 17.6936C86.0435 17.6936 85.5897 17.8833 85.237 18.264C84.8843 18.6447 84.708 19.1974 84.708 19.9258C84.708 20.6541 84.8808 21.1939 85.2288 21.5793C85.5756 21.9647 86.0106 22.1568 86.5337 22.1568C87.0568 22.1568 87.5024 21.9647 87.8715 21.5793V21.5781Z" fill="#222020"/>
<path d="M72.2 30.3644V32.6438H75.8679V34.7628H72.2V37.2355H76.3475V39.4347H69.4609V28.1641H76.3475V30.3633H72.2V30.3644Z" fill="#222020"/>
<path d="M86.8813 31.3995C87.5056 32.0796 87.8183 33.013 87.8183 34.201V39.435H85.0956V34.5699C85.0956 33.9712 84.9404 33.5045 84.6313 33.1733C84.3209 32.8421 83.9048 32.6759 83.3816 32.6759C82.8585 32.6759 82.4423 32.8421 82.132 33.1733C81.8216 33.5056 81.6676 33.9712 81.6676 34.5699V39.435H78.9297V30.4755L81.6676 31.0731V31.6635C81.9451 31.2675 82.3189 30.9552 82.7891 30.7242C83.2594 30.4944 83.7872 30.3789 84.375 30.3789C85.4213 30.3789 86.2571 30.7183 86.8813 31.3984V31.3995Z" fill="#222020"/>
<path d="M95.5029 37.1113V39.439H94.1099C93.1165 39.439 92.343 39.1962 91.7881 38.7083C91.2332 38.2216 90.9558 37.426 90.9558 36.3241V32.7601H89.8672V30.4808H90.9558V29.7854L93.6949 28.2969V30.4808H94.4555L95.4888 32.7601H93.6949V36.3571C93.6949 36.6246 93.7584 36.8179 93.8865 36.9346C94.0146 37.0524 94.2286 37.1113 94.5272 37.1113H95.5041H95.5029Z" fill="#222020"/>
<path d="M106.202 35.6135H100.004C100.046 36.1698 100.225 36.5952 100.54 36.8899C100.855 37.1845 101.242 37.3318 101.701 37.3318C102.384 37.3318 102.859 37.0431 103.126 36.4644H106.041C105.891 37.0537 105.621 37.5829 105.232 38.0543C104.841 38.5257 104.354 38.8946 103.767 39.1621C103.179 39.4297 102.523 39.564 101.797 39.564C100.921 39.564 100.141 39.3766 99.4584 39.0018C98.7754 38.6271 98.2417 38.092 97.8573 37.3966C97.4729 36.7013 97.2812 35.8869 97.2812 34.9558C97.2812 34.0248 97.4705 33.2116 97.8502 32.515C98.2288 31.8197 98.7601 31.2846 99.4431 30.9098C100.126 30.535 100.911 30.3477 101.798 30.3477C102.684 30.3477 103.432 30.5292 104.104 30.8933C104.777 31.2575 105.302 31.7761 105.682 32.4502C106.061 33.1244 106.251 33.9116 106.251 34.8109C106.251 35.0678 106.234 35.3353 106.203 35.6135H106.202ZM103.447 34.0884C103.447 33.617 103.287 33.2434 102.966 32.9641C102.647 32.6859 102.246 32.5469 101.765 32.5469C101.284 32.5469 100.919 32.6812 100.603 32.9487C100.288 33.2163 100.093 33.597 100.019 34.0884H103.446H103.447Z" fill="#222020"/>
<path d="M112.428 30.8044C112.908 30.5203 113.442 30.3789 114.029 30.3789V33.2852H113.276C112.593 33.2852 112.081 33.4326 111.739 33.7272C111.397 34.0218 111.226 34.5381 111.226 35.277V39.435H108.488V30.4755L111.226 31.0731V31.9688C111.546 31.4761 111.947 31.0884 112.428 30.8044Z" fill="#222020"/>
<path d="M119.991 30.733C120.462 30.4761 121.011 30.3477 121.641 30.3477C122.378 30.3477 123.044 30.535 123.643 30.9098C124.241 31.2846 124.713 31.8197 125.061 32.515C125.407 33.2104 125.581 34.0189 125.581 34.9393C125.581 35.8598 125.407 36.6706 125.061 37.3719C124.714 38.0731 124.241 38.6141 123.643 38.9936C123.044 39.3731 122.378 39.564 121.641 39.564C121.021 39.564 120.475 39.4356 120 39.1786C119.525 38.9217 119.153 38.5905 118.886 38.1827V43.7055H116.148V30.4761L118.886 31.0737V31.7443C119.153 31.327 119.521 30.99 119.991 30.733ZM122.225 33.3259C121.846 32.9358 121.379 32.7401 120.824 32.7401C120.269 32.7401 119.817 32.9381 119.439 33.3341C119.06 33.7301 118.87 34.2711 118.87 34.9558C118.87 35.6406 119.059 36.1815 119.439 36.5775C119.817 36.9735 120.279 37.1715 120.824 37.1715C121.368 37.1715 121.832 36.9712 122.217 36.5693C122.601 36.1674 122.793 35.6253 122.793 34.9393C122.793 34.2534 122.604 33.7172 122.224 33.3259H122.225Z" fill="#222020"/>
<path d="M131.76 30.8044C132.241 30.5203 132.774 30.3789 133.361 30.3789V33.2852H132.608C131.925 33.2852 131.413 33.4326 131.071 33.7272C130.729 34.0218 130.558 34.5381 130.558 35.277V39.435H127.82V30.4755L130.558 31.0731V31.9688C130.878 31.4761 131.279 31.0884 131.76 30.8044Z" fill="#222020"/>
<path d="M135.679 29.1226C135.374 28.8386 135.223 28.4886 135.223 28.0714C135.223 27.6542 135.374 27.2876 135.679 27.0036C135.983 26.7196 136.376 26.5781 136.856 26.5781C137.335 26.5781 137.713 26.7196 138.017 27.0036C138.321 27.2876 138.473 27.6435 138.473 28.0714C138.473 28.4992 138.321 28.8398 138.017 29.1226C137.713 29.4067 137.326 29.5481 136.856 29.5481C136.385 29.5481 135.983 29.4067 135.679 29.1226ZM138.217 30.4792V39.4386H135.479V30.4792H138.217Z" fill="#222020"/>
<path d="M142.553 39.1649C141.944 38.8973 141.465 38.5308 141.112 38.0653C140.759 37.5997 140.562 37.0776 140.52 36.5001H143.226C143.257 36.8101 143.402 37.0623 143.658 37.2544C143.915 37.4465 144.23 37.5432 144.604 37.5432C144.946 37.5432 145.209 37.476 145.396 37.3428C145.583 37.2096 145.676 37.0352 145.676 36.8207C145.676 36.5638 145.542 36.374 145.275 36.2503C145.008 36.1277 144.575 35.991 143.978 35.8413C143.337 35.6916 142.804 35.5337 142.377 35.3675C141.95 35.2014 141.581 34.9397 141.272 34.5814C140.963 34.2231 140.808 33.7388 140.808 33.1283C140.808 32.6144 140.949 32.1465 141.232 31.7234C141.515 31.3003 141.931 30.9668 142.482 30.7205C143.032 30.4741 143.685 30.3516 144.444 30.3516C145.565 30.3516 146.448 30.6297 147.095 31.186C147.74 31.7423 148.111 32.4812 148.208 33.4017H145.678C145.636 33.0917 145.499 32.8454 145.27 32.6627C145.041 32.4812 144.739 32.3893 144.365 32.3893C144.045 32.3893 143.798 32.4506 143.628 32.5743C143.457 32.6969 143.371 32.8666 143.371 33.0799C143.371 33.3369 143.508 33.529 143.779 33.6574C144.051 33.7859 144.477 33.9144 145.053 34.0428C145.714 34.2137 146.254 34.3822 146.67 34.5484C147.086 34.7146 147.452 34.9821 147.767 35.351C148.082 35.7199 148.244 36.2149 148.256 36.836C148.256 37.3605 148.109 37.8284 147.815 38.2409C147.521 38.6534 147.099 38.9775 146.55 39.212C146 39.4477 145.363 39.5656 144.636 39.5656C143.857 39.5656 143.163 39.4324 142.554 39.1637L142.553 39.1649Z" fill="#222020"/>
<path d="M159.112 35.6135H152.914C152.956 36.1698 153.135 36.5952 153.45 36.8899C153.765 37.1845 154.152 37.3318 154.612 37.3318C155.295 37.3318 155.77 37.0431 156.036 36.4644H158.951C158.801 37.0537 158.531 37.5829 158.142 38.0543C157.752 38.5257 157.264 38.8946 156.677 39.1621C156.089 39.4297 155.433 39.564 154.707 39.564C153.831 39.564 153.052 39.3766 152.369 39.0018C151.686 38.6271 151.152 38.092 150.767 37.3966C150.383 36.7013 150.191 35.8869 150.191 34.9558C150.191 34.0248 150.381 33.2116 150.76 32.515C151.139 31.8197 151.67 31.2846 152.353 30.9098C153.036 30.535 153.822 30.3477 154.708 30.3477C155.594 30.3477 156.342 30.5292 157.014 30.8933C157.687 31.2575 158.212 31.7761 158.592 32.4502C158.971 33.1244 159.161 33.9116 159.161 34.8109C159.161 35.0678 159.145 35.3353 159.113 35.6135H159.112ZM156.357 34.0884C156.357 33.617 156.197 33.2434 155.877 32.9641C155.557 32.6859 155.156 32.5469 154.675 32.5469C154.194 32.5469 153.829 32.6812 153.514 32.9487C153.199 33.2163 153.003 33.597 152.929 34.0884H156.356H156.357Z" fill="#222020"/>
</svg>
